# xmcd
#
# Track frame offsets: 
#        150
#        17366
#        35853
#        53396
#        76993
#        92981
#        124271
#        149168
#
# Disc length: 2389 seconds
#
# Revision: 3
# Processed by: cddbd v1.5.2PL0 Copyright (c) Steve Scherf et al.
# Submitted via: ExactAudioCopy v0.99pb4
#
DISCID=68095308
DTITLE=Bobby Womack - The Poet
DYEAR=1981
DGENRE=Soul
TTITLE0=So Many Sides Of You 
TTITLE1=Lay Your Lovin' On Me
TTITLE2=Secrets
TTITLE3=Just My Imagination
TTITLE4=Stand Up
TTITLE5=Games
TTITLE6=If You Think You're Lonely Now
TTITLE7=Where Do We Go From Here
EXTD=
EXTT0=
EXTT1=
EXTT2=
EXTT3=
EXTT4=
EXTT5=
EXTT6=
EXTT7=
PLAYORDER=
